<?xml version="1.0" standalone="no"?>
<!DOCTYPE svg PUBLIC "-//W3C//DTD SVG 20010904//EN"
 "http://www.w3.org/TR/2001/REC-SVG-20010904/DTD/svg10.dtd">
<svg version="1.0" xmlns="http://www.w3.org/2000/svg"
 width="1024.000000pt" height="1024.000000pt" viewBox="0 0 1024.000000 1024.000000"
 preserveAspectRatio="xMidYMid meet">
<metadata>
Created by potrace 1.14, written by Peter Selinger 2001-2017
</metadata>
<g transform="translate(0.000000,1024.000000) scale(0.100000,-0.100000)"
fill="#000000" stroke="none">
<path d="M4264 6511 c-11 -5 -34 -25 -51 -44 l-31 -36 -15 22 c-14 21 -17 21
-43 7 -63 -34 -95 -130 -58 -173 11 -12 25 -32 32 -44 6 -13 18 -32 24 -43 11
-17 9 -22 -11 -36 -45 -32 -2 -117 66 -130 19 -4 32 -11 30 -18 -9 -25 -167 4
-167 30 0 8 4 14 9 14 6 0 7 16 4 35 -3 21 -1 41 7 50 11 13 10 14 -3 10 -28
-11 -41 -64 -39 -162 1 -51 6 -102 12 -112 5 -11 10 -31 10 -46 0 -29 37 -52
66 -41 15 6 11 11 -19 32 -44 30 -46 37 -9 28 49 -12 99 -46 95 -64 -3 -9 2
-33 11 -53 13 -33 13 -37 0 -37 -9 0 -23 18 -31 40 -12 29 -21 39 -32 36 -9
-3 -28 -8 -42 -11 -19 -5 -33 -20 -49 -56 -25 -52 -26 -42 10 -179 5 -19 19
-44 32 -55 l24 -20 -38 -36 c-29 -27 -38 -44 -39 -70 l-1 -34 -7 30 c-9 37
-25 68 -45 84 -11 9 -13 25 -9 65 6 56 -16 134 -43 157 -9 7 -14 32 -14 69 0
50 -5 64 -40 116 -22 33 -45 76 -51 97 -8 32 -13 36 -25 27 -8 -7 -14 -20 -14
-30 0 -9 -3 -19 -6 -22 -10 -11 -94 24 -104 43 -9 16 -5 21 26 34 21 8 44 25
52 36 l15 22 19 -24 20 -24 -6 39 c-8 58 -32 88 -64 82 -15 -3 -38 1 -52 9
-18 10 -20 14 -8 15 19 0 78 32 78 42 0 18 -64 58 -95 58 -19 0 -45 4 -59 10
-32 12 -271 -11 -304 -29 -53 -29 -79 -122 -49 -181 10 -21 19 -24 47 -22 19
2 44 9 55 16 11 7 49 15 83 19 48 4 70 11 89 29 l26 23 -12 -23 c-9 -16 -9
-33 -2 -59 13 -44 9 -50 -21 -31 -17 10 -43 13 -105 8 -45 -3 -85 -8 -89 -12
-9 -10 15 -38 32 -38 8 0 19 -11 24 -25 12 -31 47 -45 120 -48 52 -2 55 -4 58
-30 3 -22 -1 -27 -20 -27 -31 -1 -111 -41 -116 -59 -4 -11 6 -13 54 -8 l59 6
-41 -18 c-57 -26 -74 -54 -74 -123 0 -31 5 -60 10 -63 6 -4 10 7 10 25 0 43
47 90 89 90 17 0 31 -4 31 -10 0 -5 -26 -37 -57 -70 -84 -90 -85 -92 -71 -136
15 -44 38 -57 38 -22 0 18 13 33 48 56 26 17 70 53 98 80 36 34 56 47 66 41
13 -7 67 6 94 23 6 4 16 -3 22 -17 8 -18 8 -26 -4 -35 -20 -18 -18 -35 13 -88
l28 -47 -48 39 c-42 34 -51 38 -68 28 -10 -7 -22 -12 -26 -12 -5 0 0 5 10 11
19 11 23 49 6 66 -8 8 -24 -2 -59 -36 -26 -25 -71 -67 -100 -93 -29 -27 -49
-52 -45 -58 4 -7 11 -8 18 -1 7 5 33 20 60 34 l47 25 0 -22 c0 -13 9 -31 20
-41 24 -22 17 -35 -20 -35 -65 0 -80 -29 -29 -55 25 -14 28 -19 18 -31 -13
-16 -59 -15 -71 1 -4 5 -8 20 -8 32 0 32 -21 73 -37 73 -24 0 -20 -54 8 -92
10 -15 19 -31 19 -35 0 -5 14 -25 31 -46 35 -43 34 -52 -5 -37 -35 13 -191 13
-214 0 -9 -5 -36 -14 -59 -20 -31 -8 -46 -19 -62 -45 -21 -36 -48 -46 -57 -20
-8 20 -42 29 -59 15 -12 -10 -15 -10 -15 1 -1 8 -7 -1 -15 -18 -27 -63 -39
-43 -49 84 -7 87 -11 97 -40 111 -25 11 -61 76 -51 92 4 6 22 -2 42 -19 37
-30 53 -32 53 -5 0 23 19 16 50 -17 27 -30 28 -31 39 -11 22 40 13 88 -25 137
-33 43 -35 50 -23 76 6 16 9 45 6 64 -3 19 -1 37 4 41 5 3 7 10 3 16 -3 5 1
24 9 41 52 107 56 127 33 182 -11 24 -29 41 -65 59 -50 26 -91 34 -91 18 0
-13 36 -43 43 -36 14 14 57 -8 76 -40 29 -47 28 -79 -1 -36 -13 18 -34 40 -48
49 l-25 16 27 -33 c29 -34 56 -107 45 -119 -4 -3 -15 1 -24 10 -11 9 -28 13
-45 10 -20 -4 -29 0 -37 16 -12 22 -10 24 27 21 30 -2 28 16 -10 74 -42 63
-78 90 -108 81 -18 -6 -21 -13 -18 -41 l4 -34 -37 6 c-22 4 -39 2 -43 -5 -4
-6 4 -36 18 -67 30 -65 32 -82 11 -90 -21 -9 -19 -31 5 -44 30 -16 42 -3 24
26 -15 21 -15 24 -1 24 9 0 28 -10 44 -23 15 -13 43 -29 61 -36 56 -23 37 -33
-45 -25 -90 8 -119 25 -128 74 -4 19 -22 70 -41 113 -39 86 -38 106 7 80 28
-17 30 -17 52 5 12 13 31 29 42 37 18 13 15 14 -40 14 -34 0 -71 -6 -85 -14
-14 -8 -37 -14 -52 -15 -48 0 -80 -22 -99 -68 -11 -24 -19 -57 -19 -72 0 -16
-4 -32 -10 -35 -5 -3 -10 -20 -10 -37 l0 -31 23 33 c12 18 34 42 50 54 l27 20
27 -20 c15 -12 37 -44 48 -72 12 -29 26 -57 33 -64 17 -17 15 -29 -5 -26 -28
5 -27 -34 1 -61 21 -20 28 -22 41 -11 13 11 24 10 63 -8 26 -11 61 -25 77 -30
l30 -9 -37 -8 c-22 -4 -43 -16 -52 -30 -14 -22 -14 -25 13 -54 16 -17 34 -31
40 -31 6 0 11 -5 11 -11 0 -7 -16 -8 -47 -3 -58 8 -63 12 -40 29 18 13 18 15
1 40 -24 36 -48 47 -91 39 -34 -6 -98 -34 -80 -34 5 0 -1 -15 -12 -34 -22 -34
-29 -82 -11 -71 16 10 12 -11 -5 -25 -11 -9 -18 -10 -29 -1 -11 9 -20 -3 -46
-64 -28 -64 -32 -81 -26 -122 4 -27 10 -66 13 -88 3 -23 14 -46 24 -53 28 -19
27 -97 -2 -112 -27 -15 -59 -69 -59 -102 0 -31 -19 -78 -32 -78 -4 0 -27 -9
-51 -20 -23 -10 -71 -21 -107 -24 -105 -7 -130 -15 -130 -42 0 -12 -11 -32
-26 -43 -23 -18 -28 -19 -48 -6 -18 12 -34 12 -91 4 -39 -6 -79 -16 -90 -22
-20 -10 -20 -10 -1 11 23 26 80 44 113 36 28 -7 63 19 63 48 0 13 -8 18 -30
18 -16 0 -30 4 -30 10 0 17 -86 69 -106 64 -16 -4 -19 1 -20 31 0 34 9 45 21
25 4 -6 11 -8 16 -4 6 3 -10 26 -34 50 -33 33 -53 44 -75 44 -35 0 -47 23 -37
70 8 37 19 44 44 30 14 -7 22 -7 26 1 10 15 -23 48 -44 42 -9 -2 -23 3 -30 11
-8 9 -23 16 -34 16 -15 0 -11 6 18 26 21 14 44 23 53 19 30 -11 42 14 36 71
-5 38 -3 54 5 54 6 0 14 -7 17 -15 4 -8 10 -15 16 -15 11 0 3 32 -23 82 -16
33 -17 40 -4 65 27 52 16 106 -19 97 -15 -3 -30 4 -50 25 -16 17 -43 33 -60
37 -38 7 -86 -10 -86 -31 0 -8 -6 -15 -12 -15 -7 0 -23 -3 -35 -6 -19 -5 -23
-2 -23 15 0 11 -4 21 -9 21 -13 0 -33 -55 -29 -80 2 -18 10 -23 43 -25 22 -1
57 -12 78 -25 31 -18 35 -25 26 -37 -9 -10 -27 -13 -67 -9 -29 2 -55 6 -56 8
-19 23 -76 112 -76 119 0 32 -137 -37 -160 -81 -22 -42 6 -74 29 -32 7 13 13
14 21 6 9 -9 1 -19 -31 -40 l-42 -29 -1 -69 c-1 -53 2 -74 17 -92 17 -22 17
-26 3 -46 -22 -31 -20 -65 4 -85 20 -18 29 -50 10 -38 -11 7 -14 -18 -3 -28
12 -13 9 -111 -4 -137 -16 -31 -16 -54 -2 -122 9 -42 22 -63 68 -111 63 -66
103 -91 136 -85 23 5 45 -18 45 -46 0 -8 13 -44 30 -80 20 -46 39 -72 62 -86
36 -22 107 -27 139 -9 16 8 25 7 40 -7 10 -9 22 -15 25 -11 3 3 27 -8 52 -24
46 -29 114 -40 127 -19 4 6 -12 10 -40 10 -48 0 -92 17 -115 45 -30 36 -64 45
-118 31 -43 -11 -56 -11 -84 2 l-33 15 40 8 c47 9 175 65 175 77 0 4 -7 17
-15 28 -8 10 -14 28 -15 39 0 19 31 -35 44 -77 3 -10 10 -18 16 -18 6 0 8 5 5
10 -10 16 7 12 44 -11 47 -28 75 -22 79 17 2 25 -6 41 -42 81 -26 28 -46 53
-46 55 0 2 13 19 28 36 26 29 30 30 48 17 10 -8 40 -22 66 -30 40 -14 52 -24
79 -71 26 -47 30 -61 24 -97 -9 -62 -6 -169 6 -181 3 -3 21 -1 40 5 19 6 60
12 91 14 31 1 67 9 80 17 13 8 54 18 93 22 38 4 74 11 80 16 5 4 27 11 48 15
23 5 45 17 57 34 11 14 32 39 46 55 25 28 25 28 6 50 -26 29 -34 54 -22 76 12
22 3 50 -16 50 -14 0 -18 -12 -15 -37 1 -9 -8 -7 -28 4 -27 16 -28 19 -16 43
8 15 21 32 29 39 17 15 21 31 7 31 -4 0 -20 -11 -35 -25 -32 -29 -90 -34 -136
-10 -34 17 -37 27 -15 45 24 20 18 30 -24 47 l-40 16 36 24 c23 16 46 23 67
21 27 -3 31 -7 34 -38 7 -73 40 -78 130 -19 95 62 182 64 245 5 l25 -24 7 26
c4 18 0 34 -15 54 l-20 28 37 15 c20 9 45 23 54 31 16 14 18 14 24 -5 3 -12 3
-31 0 -42 -11 -35 10 -14 29 30 12 26 23 38 32 34 8 -3 14 1 14 8 0 10 3 10
12 1 7 -7 20 -12 30 -12 10 0 18 -4 18 -10 0 -5 -4 -10 -10 -10 -21 0 -9 -31
15 -40 14 -5 25 -14 25 -19 0 -11 39 -34 78 -45 12 -4 22 -3 22 3 0 5 -13 12
-30 16 -33 7 -40 22 -12 27 21 4 152 -33 152 -43 0 -4 -12 -10 -27 -12 -20 -3
-17 -4 13 -6 28 -1 50 5 65 18 22 18 25 18 42 3 10 -9 42 -17 75 -20 51 -4 60
-1 85 22 26 24 29 25 45 10 46 -47 137 -53 180 -14 19 18 23 18 49 5 37 -19
107 -19 123 0 7 8 20 15 29 15 9 0 27 9 41 20 35 28 78 26 82 -2 4 -32 51 -37
71 -7 16 22 37 19 37 -6 0 -8 12 -23 27 -32 23 -15 47 -18 152 -15 91 1 131 6
148 17 20 13 26 14 46 1 12 -7 46 -16 76 -20 l54 -5 -25 27 c-14 15 -31 37
-37 50 -17 33 -52 28 -88 -13 -36 -41 -53 -44 -72 -13 -12 20 -11 24 8 36 11
8 21 18 21 23 0 19 -27 7 -63 -26 -21 -20 -47 -35 -61 -35 -52 0 -116 58 -116
104 0 14 -55 69 -87 85 -12 6 -30 11 -41 11 -30 0 -46 27 -48 83 -2 69 -1 67
-25 67 -12 0 -36 7 -54 16 l-33 15 16 32 c20 38 31 47 55 47 15 0 17 -6 12
-34 -6 -31 -2 -38 52 -92 110 -111 129 -124 186 -124 59 0 120 -25 177 -70 34
-27 44 -30 80 -24 66 11 83 31 88 104 5 63 5 63 18 31 9 -22 22 -33 44 -37 25
-6 28 -8 15 -18 -17 -12 -45 -105 -45 -151 0 -71 60 -115 157 -115 46 0 57 8
42 26 -9 11 -5 16 16 24 46 17 61 9 28 -16 -16 -11 -15 -14 19 -28 47 -20 81
-20 118 -1 40 21 38 26 -7 23 -36 -3 -38 -1 -41 28 -4 36 52 127 82 132 16 4
18 0 12 -28 -11 -57 37 -83 68 -38 26 37 21 68 -14 75 -35 6 -34 4 -18 38 10
22 17 25 65 25 66 0 118 -31 103 -61 -18 -32 -12 -104 11 -133 12 -15 24 -25
27 -22 2 3 -1 12 -8 21 -28 34 1 23 50 -19 33 -28 62 -45 79 -45 14 0 43 -3
64 -7 22 -4 37 -2 37 4 0 5 8 12 18 15 9 2 25 8 35 12 13 6 16 3 11 -9 -7 -19
12 -21 51 -6 18 7 38 5 71 -6 46 -16 46 -15 83 13 50 41 71 47 86 27 17 -24
44 -11 41 19 -4 35 -42 92 -71 105 -14 6 -25 8 -25 3 0 -13 -49 -20 -53 -7 -2
6 11 24 28 41 17 16 37 39 43 50 10 19 10 19 32 0 15 -13 38 -20 72 -21 55 -2
74 -12 40 -21 -25 -6 -30 -43 -9 -65 6 -8 18 -24 25 -36 11 -20 10 -23 -13
-34 -20 -9 -24 -17 -22 -45 2 -27 6 -33 25 -33 12 0 38 7 58 15 19 8 40 12 47
9 17 -6 26 114 14 188 -8 46 -7 48 32 87 39 39 71 53 71 30 0 -6 9 -8 20 -5
11 3 29 9 40 12 11 3 20 1 20 -5 0 -6 -8 -11 -17 -11 -42 -1 -85 -60 -85 -116
0 -76 62 -88 123 -24 53 56 74 58 134 15 27 -19 43 -35 36 -35 -11 0 -9 -4 4
-14 17 -12 12 -13 -36 -5 -51 8 -55 7 -73 -16 -14 -20 -21 -23 -32 -14 -22 18
-91 12 -129 -11 -42 -26 -53 -55 -29 -81 22 -25 55 -24 88 2 l26 21 31 -26
c17 -14 42 -29 56 -32 31 -8 79 8 75 25 -2 8 4 10 16 7 11 -4 24 0 31 8 9 11
25 13 62 9 58 -7 63 5 14 31 -19 10 -42 28 -52 39 -18 19 -18 19 22 -1 22 -11
59 -25 81 -32 40 -12 44 -11 88 19 43 30 65 68 31 55 -23 -9 -77 4 -105 26
l-25 19 23 24 c31 33 106 55 127 37 10 -8 13 -21 9 -37 -6 -21 -3 -24 12 -21
30 5 56 66 51 116 -9 87 -74 114 -171 71 -61 -27 -83 -19 -25 9 29 14 67 22
113 24 77 3 86 12 86 90 0 43 9 47 15 6 20 -136 39 -186 80 -208 16 -8 21 -18
17 -35 -7 -38 16 -88 53 -115 18 -14 38 -34 43 -46 13 -28 71 -54 119 -54 32
0 41 -5 55 -30 9 -17 24 -30 33 -30 13 0 12 6 -9 31 -29 34 -34 54 -11 45 8
-3 14 0 12 7 -1 7 11 13 28 15 34 4 44 16 45 52 1 23 3 22 21 -12 11 -21 26
-38 35 -38 8 0 45 -18 81 -40 45 -27 73 -38 88 -34 28 7 44 -15 21 -28 -21
-12 -21 -69 -1 -108 29 -56 105 -53 129 5 19 44 36 45 35 3 -1 -31 -1 -32 -9
-8 -8 24 -8 24 -9 -7 -1 -34 -9 -42 -55 -58 -43 -15 -65 -52 -78 -128 -10 -59
-9 -69 6 -85 23 -26 21 -46 -3 -33 -25 14 -32 4 -25 -36 6 -31 5 -33 -24 -33
-26 0 -33 6 -51 45 -12 25 -21 48 -21 51 0 4 20 4 45 1 36 -5 47 -3 52 9 8 22
-16 35 -54 29 -26 -5 -33 -2 -33 10 0 8 8 15 18 15 10 0 28 7 40 16 18 12 22
25 22 67 0 30 -9 70 -20 96 -12 26 -20 65 -20 97 l0 53 -36 -1 c-26 -1 -41 5
-53 20 -9 11 -33 32 -53 46 -41 27 -50 17 -22 -22 15 -21 15 -25 0 -41 -9 -10
-16 -22 -16 -28 0 -6 -13 -14 -30 -18 -16 -4 -30 -10 -30 -15 0 -11 -74 -21
-147 -20 -34 0 -64 -4 -68 -10 -3 -6 3 -10 15 -10 12 0 30 -5 40 -10 19 -10
19 -12 3 -45 -17 -35 -17 -35 -35 -15 -21 23 -31 24 -59 10 -56 -30 -64 -152
-16 -227 17 -27 33 -13 29 25 -3 45 12 76 28 52 5 -8 12 -41 16 -72 6 -52 13
-63 37 -59 4 0 7 -5 7 -13 0 -8 5 -18 10 -21 7 -4 9 2 4 19 -3 14 -3 38 1 54
l7 27 14 -34 14 -34 23 21 c36 34 74 44 105 28 l27 -14 -30 -7 c-16 -3 -50
-11 -75 -18 -43 -12 -45 -15 -48 -53 -2 -31 2 -44 20 -61 31 -29 98 -35 98 -9
0 26 41 66 67 66 24 0 25 -3 20 -35 -8 -46 14 -47 57 -2 l31 34 43 -15 c59
-19 108 -8 150 34 19 19 41 34 48 34 28 0 73 30 100 66 20 25 29 51 32 90 3
37 9 54 18 54 8 0 14 -10 14 -24 0 -22 3 -24 29 -16 23 6 33 4 45 -9 15 -17
12 -61 -5 -61 -16 0 -10 -29 17 -83 30 -59 45 -73 92 -86 18 -5 41 -20 51 -33
17 -20 29 -23 93 -25 40 -1 101 -4 136 -7 70 -7 120 8 88 26 -9 5 -24 7 -34 4
-12 -4 -27 3 -42 19 -19 20 -30 24 -52 20 -26 -6 -28 -4 -28 22 0 16 -7 38
-15 49 -8 10 -15 26 -15 35 0 16 -38 39 -90 54 -37 11 -51 26 -44 47 8 25 -22
58 -53 58 -13 0 -26 7 -29 15 -4 8 -10 12 -15 9 -5 -3 -9 7 -9 23 -1 25 -2 26
-14 11 -7 -10 -22 -18 -33 -18 -25 0 -133 112 -162 167 -19 38 -24 41 -53 39
-18 -2 -23 -1 -11 1 13 2 32 16 44 31 l21 27 28 -32 c16 -17 45 -36 64 -41 20
-6 48 -20 62 -31 50 -40 121 -23 149 35 21 45 16 101 -15 144 l-22 31 21 23
c44 47 46 139 5 181 -21 21 -24 19 -18 -13 4 -19 -1 -35 -14 -52 -25 -31 -33
-24 -40 35 -6 60 -35 77 -87 52 -39 -19 -45 -36 -15 -44 11 -3 26 -17 33 -32
7 -14 19 -36 27 -47 16 -26 9 -48 -25 -70 -24 -16 -28 -15 -74 5 -62 26 -94
28 -89 4 4 -23 65 -63 97 -63 44 -1 1 -19 -60 -26 -45 -5 -64 -1 -112 20 -32
14 -64 26 -73 26 -26 0 -64 50 -64 85 0 36 28 55 84 55 30 0 87 29 59 30 -25
0 -12 20 13 20 17 0 28 -6 31 -19 2 -10 15 -24 29 -31 27 -15 48 -3 57 31 4
15 -3 23 -31 35 -56 23 -83 53 -71 76 6 10 8 24 6 31 -8 21 13 47 38 47 14 0
30 9 37 20 14 22 28 26 28 10 0 -6 -9 -30 -20 -52 -11 -23 -20 -47 -20 -54 0
-15 23 -24 62 -24 41 0 118 62 118 94 0 13 11 40 25 60 14 21 23 42 19 47 -3
5 6 19 20 30 21 16 26 29 26 63 0 23 -3 46 -6 49 -4 3 -22 -10 -40 -31 -23
-26 -34 -47 -34 -69 0 -35 -52 -105 -67 -90 -4 5 7 21 26 36 29 24 33 32 29
62 -3 19 -8 42 -12 51 -6 12 0 21 23 33 37 18 40 46 9 74 -20 19 -20 22 -5 39
23 25 21 48 -7 118 -58 142 -88 174 -162 174 -37 0 -39 -2 -25 -28 4 -9 11
-38 14 -63 l6 -47 -24 12 c-14 6 -25 19 -25 29 0 9 -11 23 -25 29 -29 13 -31
21 -10 38 11 9 12 17 5 30 -8 16 -6 19 15 22 32 4 33 23 0 23 -13 0 -36 12
-52 27 -36 34 -99 61 -128 54 -38 -10 -85 -72 -85 -111 0 -19 -5 -35 -10 -35
-18 0 -23 30 -11 57 10 22 8 28 -14 49 -24 22 -25 24 -6 24 12 0 21 5 21 11 0
14 -106 7 -121 -8 -6 -6 1 -8 23 -5 l33 5 -30 -26 c-26 -22 -33 -24 -50 -13
-21 13 -48 12 -131 -2 -64 -10 -98 -32 -122 -77 -10 -20 -33 -43 -52 -53 -40
-20 -80 -74 -80 -108 0 -15 -14 -34 -40 -55 -43 -35 -54 -65 -20 -54 15 5 20
2 20 -13 0 -11 -7 -23 -16 -26 -22 -8 -54 -87 -47 -116 l6 -23 -21 21 c-47 47
-101 61 -152 38 -12 -5 -15 4 -15 49 0 48 -4 59 -30 85 -61 61 -156 41 -171
-35 -8 -46 -1 -52 32 -26 34 27 64 27 98 0 20 -15 26 -29 24 -48 -3 -25 -6
-26 -78 -31 -71 -5 -75 -6 -97 -39 -31 -46 -70 -66 -102 -51 -21 10 -27 8 -38
-6 -17 -24 -17 -25 16 -88 16 -31 24 -56 19 -56 -6 0 -8 -7 -4 -15 6 -18 2
-19 -25 -4 -11 6 -24 20 -28 32 -8 21 -9 20 -15 -8 -6 -28 -11 -31 -49 -34
-124 -10 -130 -7 -122 66 5 48 3 63 -13 86 -18 26 -18 32 -5 58 19 39 19 103
-1 134 -10 16 -14 34 -10 50 4 18 2 25 -7 25 -11 0 -13 12 -11 45 2 25 -1 60
-8 77 -19 52 -29 98 -20 98 4 0 19 -11 35 -25 21 -20 25 -31 20 -48 -9 -27 -9
-59 2 -117 10 -55 21 -36 29 49 7 75 -15 118 -76 149 -34 17 -54 21 -82 17
-21 -4 -52 -1 -71 6 -36 13 -92 5 -82 -11 4 -6 0 -12 -7 -14 -107 -31 -138
-60 -138 -126 0 -50 14 -65 74 -80 30 -7 54 -16 53 -19 -3 -13 25 -80 39 -91
16 -14 18 -29 5 -49 -7 -11 -15 -10 -44 8 -43 27 -73 27 -80 1 -3 -11 -13 -23
-24 -26 -10 -4 -35 -25 -55 -47 -40 -43 -48 -80 -27 -118 8 -15 7 -24 -2 -36
-12 -13 -14 -13 -26 3 -7 10 -13 27 -13 38 0 10 -3 17 -6 14 -7 -8 -12 -35
-13 -70 -1 -20 -6 -28 -18 -28 -10 0 -31 -7 -48 -16 -16 -8 -40 -12 -53 -9
-34 8 -47 -4 -23 -22 28 -19 29 -92 3 -116 -32 -30 -69 -21 -96 21 -13 20 -31
43 -39 51 -15 12 -15 17 -2 48 8 20 15 51 15 69 0 19 3 34 8 34 4 0 16 15 26
34 10 19 25 37 32 40 8 3 14 14 14 24 0 25 -22 71 -38 77 -13 5 -46 -7 -73
-27 -13 -9 -22 -7 -42 8 l-25 20 29 17 c66 37 6 103 -62 67 -25 -14 -25 -56 1
-72 18 -12 17 -13 -12 -25 -43 -18 -51 -16 -44 9 4 16 -3 31 -23 53 -16 16
-33 44 -39 62 -9 28 -8 33 14 48 13 8 24 23 24 33 0 9 7 25 14 35 8 10 12 27
9 37 -4 17 0 20 25 20 22 0 32 -6 37 -20 4 -11 30 -31 60 -45 69 -33 94 -59
37 -40 -43 15 -124 13 -130 -3 -10 -31 138 -58 165 -31 12 12 43 -24 43 -52 0
-25 11 -50 20 -44 11 7 -7 104 -25 132 -18 27 -72 63 -96 63 -9 0 -24 12 -34
26 -9 14 -22 23 -30 21 -7 -3 -22 1 -33 9 -16 11 -30 12 -65 4 -29 -6 -56 -6
-78 0 -51 15 -65 12 -95 -15 -15 -14 -30 -25 -34 -25 -14 0 -50 -42 -50 -58 1
-16 2 -16 14 1 7 9 16 17 19 17 12 0 -6 -35 -25 -51 -14 -11 -18 -22 -13 -42
8 -29 24 -34 42 -16 9 9 14 3 20 -22 9 -33 8 -35 -28 -51 -37 -16 -38 -18 -28
-50 6 -18 16 -55 23 -83 8 -27 17 -57 20 -67 5 -11 1 -18 -14 -23 -12 -4 -23
-18 -27 -36 -3 -16 -10 -26 -16 -22 -5 3 -35 7 -66 8 -31 1 -95 6 -143 10 -75
7 -88 5 -88 -7 0 -8 10 -20 23 -26 17 -8 18 -11 5 -11 -10 -1 -32 8 -50 19
-18 11 -47 20 -64 20 -28 0 -30 3 -27 28 3 15 0 38 -5 52 -6 15 -6 35 0 52 7
19 6 39 -3 65 -15 45 -20 95 -9 88 15 -10 18 23 4 50 -18 36 -18 61 2 69 16 6
16 12 -2 135 -4 31 -3 42 5 37 22 -14 16 54 -7 72 -16 12 -16 14 0 23 15 8 17
24 15 117 -2 59 -9 117 -15 129 -12 21 -2 72 20 99 7 10 9 35 8 119 -1 152
-14 191 -76 226 -33 19 -216 33 -250 20z m122 -47 c32 -33 53 -79 41 -90 -11
-11 -77 26 -77 43 0 10 -7 29 -16 42 -13 18 -23 22 -47 18 -27 -4 -28 -3 -12
10 34 24 75 16 111 -23z m171 -96 c-3 -7 -5 -2 -5 12 0 14 2 19 5 13 2 -7 2
-19 0 -25z m-269 -35 c1 -24 0 -43 -4 -43 -4 0 -20 16 -37 35 -16 19 -36 35
-43 35 -8 0 -14 5 -14 11 0 6 19 9 47 7 l48 -3 3 -42z m-164 28 c3 -5 -1 -15
-10 -22 -13 -10 -17 -10 -25 2 -5 8 -9 17 -9 22 0 10 38 9 44 -2z m134 -146
c-3 -27 0 -30 23 -27 20 2 28 -3 32 -18 4 -17 0 -22 -24 -27 -16 -3 -29 -12
-29 -19 0 -22 -31 -16 -37 6 -3 11 -10 20 -17 20 -6 0 -4 4 4 10 12 7 10 13
-13 34 -23 21 -27 33 -27 76 l0 51 45 -38 c38 -32 45 -43 43 -68z m92 74 c0
-5 -4 -9 -10 -9 -5 0 -10 7 -10 16 0 8 5 12 10 9 6 -3 10 -10 10 -16z m53 -26
c-7 -2 -19 -2 -25 0 -7 3 -2 5 12 5 14 0 19 -2 13 -5z m-744 -49 c10 -9 -35
-3 -49 6 -11 8 -7 9 15 4 17 -4 32 -8 34 -10z m-199 -8 c0 -3 -4 -8 -10 -11
-5 -3 -10 -1 -10 4 0 6 5 11 10 11 6 0 10 -2 10 -4z m975 -63 c5 -17 2 -23 -9
-23 -23 0 -19 -15 7 -27 21 -10 20 -11 -22 -32 -31 -16 -49 -20 -63 -14 -20 8
-19 10 5 33 20 19 24 31 20 57 -3 20 0 39 7 48 12 15 15 14 31 -2 9 -10 20
-28 24 -40z m-828 -19 c-3 -3 -12 -4 -19 -1 -8 3 -5 6 6 6 11 1 17 -2 13 -5z
m722 -45 c-14 -27 -19 -24 -19 12 0 27 2 30 15 19 11 -9 12 -17 4 -31z m-649
-3 c0 -19 -37 -63 -45 -54 -11 11 15 68 31 68 8 0 14 -6 14 -14z m70 -1 c0 -8
-4 -15 -10 -15 -5 0 -7 7 -4 15 4 8 8 15 10 15 2 0 4 -7 4 -15z m790 -86 c15
-27 9 -64 -10 -64 -23 0 -45 52 -30 71 17 19 27 18 40 -7z m-180 -185 c0 -24
-84 45 -106 87 -24 47 -16 44 46 -21 33 -34 60 -64 60 -66z m180 34 c0 -30 -1
-31 -17 -16 -13 14 -14 20 -3 32 18 22 20 20 20 -16z m2818 -48 c-7 -10 -14
-18 -15 -16 -6 6 9 36 18 36 5 0 4 -9 -3 -20z m550 2 c5 -17 -55 -44 -91 -40
l-32 3 50 26 c53 28 66 30 73 11z m-4318 -62 c13 -25 5 -40 -21 -40 -22 0 -34
22 -25 45 8 21 33 19 46 -5z m2480 5 c0 -2 -9 -19 -20 -37 -11 -18 -20 -42
-20 -52 0 -26 -17 -9 -25 25 -5 21 -1 31 21 48 25 20 44 27 44 16z m1370 -12
c44 -18 95 -43 110 -52 8 -6 43 -18 77 -29 53 -16 65 -17 74 -6 6 8 17 14 24
14 7 0 46 16 88 35 74 34 107 43 107 28 0 -12 -59 -43 -79 -43 -28 0 -71 -39
-71 -64 0 -31 20 -54 50 -58 14 -2 25 -10 25 -18 0 -23 16 -30 70 -30 72 0 98
17 112 70 l11 45 1 -40 c1 -45 -3 -52 -43 -83 -26 -20 -40 -22 -102 -20 -69 3
-73 4 -76 27 -2 18 -11 27 -32 32 -16 5 -39 18 -52 30 l-24 22 0 -24 c0 -62
-54 -89 -133 -65 -56 17 -167 8 -167 -13 0 -5 -31 -41 -70 -80 -41 -41 -70
-79 -70 -91 0 -24 -11 -25 -50 -5 -17 9 -33 15 -37 14 -15 -3 -34 47 -29 78 3
18 0 35 -5 38 -5 4 -8 16 -8 28 1 16 3 17 6 5 6 -25 31 -30 43 -8 13 25 3 50
-21 50 -45 0 -5 96 53 126 l33 17 -33 -37 c-23 -26 -32 -47 -32 -72 0 -44 14
-49 78 -31 39 12 66 13 123 6 49 -6 84 -6 106 2 17 5 48 7 67 3 53 -9 86 2 86
30 0 42 -84 93 -124 75 -19 -9 -32 -6 -72 18 -41 23 -50 33 -52 62 -2 18 0 31
5 29 4 -2 19 -9 33 -15z m-3052 -25 c26 -44 27 -121 0 -176 -31 -65 -35 -115
-10 -140 18 -18 19 -22 6 -33 -19 -15 -18 -55 2 -63 8 -3 24 -2 34 4 14 8 21
5 34 -15 9 -13 16 -26 16 -29 0 -12 -93 -56 -120 -56 -71 0 -116 52 -91 106
16 35 14 44 -9 44 -35 0 -90 28 -90 46 0 15 2 15 25 0 64 -42 104 -6 146 129
20 67 15 104 -20 131 -12 9 -9 17 20 47 19 20 35 37 36 37 1 0 10 -15 21 -32z
m3249 11 c16 -3 20 -8 14 -18 -13 -20 -51 -4 -51 22 0 13 3 17 8 11 4 -7 17
-14 29 -15z m-3724 -116 c25 -46 12 -41 -18 7 -14 23 -22 46 -18 53 5 8 9 6
13 -8 3 -11 13 -35 23 -52z m1273 11 c-30 -31 -33 -50 -9 -76 9 -10 14 -20 12
-22 -7 -7 -89 18 -89 27 0 24 32 66 65 85 37 21 49 13 21 -14z m-927 -23 c18
-11 -1 -23 -26 -15 -13 4 -15 3 -4 -4 9 -7 10 -12 2 -16 -17 -11 -30 2 -24 24
6 21 28 26 52 11z m3893 -31 c-3 -17 0 -21 12 -17 9 4 16 3 16 -2 0 -11 -41
-47 -63 -54 -26 -9 -32 -36 -12 -51 9 -7 16 -21 14 -31 -4 -18 -6 -18 -26 4
-12 13 -33 25 -47 26 -13 2 -32 7 -41 12 -14 8 -9 14 29 32 37 17 48 28 53 52
10 51 72 79 65 29z m-2084 -23 c20 -23 25 -64 9 -70 -10 -4 -17 3 -22 21 -4
15 -11 30 -17 33 -11 7 -2 29 11 29 5 0 13 -6 19 -13z m-1973 -7 c3 -6 -1 -7
-9 -4 -18 7 -21 14 -7 14 6 0 13 -4 16 -10z m3466 -85 c15 -8 40 -15 54 -15
14 0 28 -6 31 -14 3 -8 15 -11 31 -8 16 3 24 1 20 -5 -4 -6 7 -30 23 -54 29
-43 29 -46 24 -144 -3 -55 -6 -109 -5 -120 0 -18 -5 -20 -40 -17 -33 4 -44 11
-62 38 -12 19 -24 34 -27 34 -12 0 -60 -90 -60 -114 0 -14 -4 -26 -9 -26 -17
0 -30 26 -29 60 0 19 -2 45 -7 57 -5 17 -1 24 21 35 16 7 30 21 32 32 3 15 -1
17 -25 12 -26 -6 -32 -3 -49 29 l-19 36 48 43 c63 56 61 77 -13 129 l-55 39
44 -6 c24 -4 56 -13 72 -21z m-2393 -13 c2 -7 -7 -12 -22 -12 -27 0 -35 15
-13 23 17 7 30 3 35 -11z m-1284 -14 c20 9 27 7 45 -12 23 -24 27 -51 10 -61
-5 -4 -9 -18 -7 -32 3 -21 -3 -26 -51 -43 -39 -13 -62 -15 -78 -9 -14 5 -42 9
-64 9 -70 0 -39 53 39 66 69 11 90 46 55 88 -18 21 -18 21 5 2 18 -16 27 -17
46 -8z m-2117 -20 c15 -12 16 -18 3 -38 -8 -12 -15 -9 -39 20 -17 19 -30 38
-31 42 0 9 49 -9 67 -24z m3363 -59 c-71 -62 -88 -67 -45 -13 52 65 66 77 79
63 8 -7 -2 -22 -34 -50z m2763 55 c3 -4 -12 -20 -34 -36 -48 -35 -68 -71 -50
-92 7 -8 10 -20 6 -26 -10 -17 -25 -11 -25 10 0 11 -4 20 -10 20 -16 0 -12 43
6 69 28 39 90 71 107 55z m-3352 -30 c25 -28 23 -28 -23 -5 -30 15 -37 31 -15
31 8 0 24 -12 38 -26z m3549 11 c25 -30 8 -95 -25 -95 -12 0 -28 87 -18 102 7
13 30 9 43 -7z m-6251 -50 l0 -20 -9 20 c-5 11 -9 27 -9 35 -1 13 0 13 9 0 5
-8 9 -24 9 -35z m2631 31 c0 -8 -4 -18 -10 -21 -5 -3 -10 3 -10 14 0 12 5 21
10 21 6 0 10 -6 10 -14z m1637 -91 c23 -22 52 -50 65 -62 38 -36 68 -75 68
-88 0 -7 -6 -18 -14 -25 -8 -6 -12 -18 -9 -26 4 -10 -13 -6 -53 14 -81 38 -82
39 -77 66 6 28 -14 96 -28 96 -5 0 -9 -4 -9 -10 0 -5 -18 -10 -40 -10 -37 0
-40 2 -39 28 1 32 12 63 23 64 4 0 20 -12 36 -27 40 -39 46 -9 6 35 l-31 35
30 -25 c17 -14 49 -43 72 -65z m-4521 7 c-2 -2 -14 2 -26 8 -32 17 -35 6 -8
-31 16 -22 19 -33 11 -36 -7 -3 -13 -16 -13 -29 0 -13 -4 -24 -9 -24 -12 0
-107 44 -123 58 -7 5 -26 12 -43 14 l-30 3 35 23 c44 27 60 28 53 2 -3 -13 0
-20 8 -20 8 0 31 -3 52 -6 31 -6 37 -4 37 11 0 9 -12 21 -28 27 l-28 11 20 21
21 21 37 -24 c21 -14 36 -26 34 -29z m4664 48 c0 -5 -6 -10 -14 -10 -8 0 -18
5 -21 10 -3 6 3 10 14 10 12 0 21 -4 21 -10z m590 -15 c0 -17 -137 -88 -152
-79 -30 19 41 63 150 93 1 1 2 -6 2 -14z m197 3 c6 -7 10 -34 10 -60 0 -45 -1
-46 -21 -32 -34 23 -87 17 -140 -16 -85 -54 -182 -107 -209 -113 -33 -9 -42 5
-17 28 13 11 18 25 14 37 -4 15 0 18 30 18 40 0 198 83 241 126 26 26 76 32
92 12z m-2916 -9 c24 -12 42 -55 34 -80 -5 -15 -16 -19 -49 -19 -23 0 -47 5
-54 12 -17 17 -15 58 5 80 18 21 36 23 64 7z m-2365 -33 c-9 -14 -16 -35 -16
-46 0 -28 -26 -76 -45 -83 -17 -7 -45 1 -45 13 0 4 -11 24 -25 44 -31 46 -25
68 16 54 38 -13 74 -4 101 27 27 31 36 24 14 -9z m1135 1 c21 -16 39 -51 39
-75 0 -24 -22 -44 -36 -34 -21 14 -46 74 -40 98 7 27 14 29 37 11z m4301 -20
c-2 -11 9 -24 29 -35 18 -9 54 -39 80 -65 28 -28 50 -44 54 -38 12 20 23 11
28 -21 8 -54 -9 -53 -53 3 -73 92 -144 119 -225 85 -31 -13 -35 -13 -35 0 0
21 41 75 65 85 32 13 60 6 57 -14z m-1844 -7 c21 0 32 -7 41 -26 6 -14 9 -30
6 -35 -8 -12 -42 -11 -50 2 -22 35 -83 26 -223 -30 -76 -30 -83 -26 -30 23 36
33 62 47 120 63 46 13 79 17 90 12 9 -5 30 -9 46 -9z m-2575 -57 c3 -38 13
-88 22 -113 35 -97 20 -130 -60 -130 -67 0 -80 14 -71 76 4 34 16 57 41 85 30
33 35 46 35 87 0 47 5 62 20 62 4 0 10 -30 13 -67z m849 3 c-2 -18 1 -43 7
-55 10 -19 9 -21 -12 -21 -50 0 -86 -21 -103 -60 -13 -28 -21 -36 -35 -33 -25
7 -24 13 11 52 17 18 27 37 24 43 -5 8 3 9 24 5 50 -10 64 0 56 39 -4 21 -2
40 6 49 20 24 26 18 22 -19z m129 24 c24 -13 26 -40 2 -34 -10 3 -29 14 -43
24 l-25 20 23 0 c13 0 32 -5 43 -10z m-1165 -35 c7 -18 -22 -50 -31 -35 -8 13
4 50 16 50 5 0 12 -7 15 -15z m1949 -28 c71 -51 142 -93 170 -100 11 -2 2 -5
-20 -6 -22 0 -55 -5 -74 -11 -26 -7 -37 -6 -45 3 -6 8 -39 36 -73 63 -66 52
-74 66 -45 83 24 15 22 15 87 -32z m3299 18 c6 -17 -2 -45 -14 -45 -9 0 -20
25 -20 46 0 19 26 18 34 -1z m-1986 -22 c-1 -16 1 -47 6 -71 5 -30 4 -47 -5
-58 -9 -11 -9 -18 -1 -26 14 -14 16 -78 3 -78 -5 0 -21 4 -35 10 -23 8 -26 15
-26 54 0 60 -18 96 -55 112 l-30 13 33 1 c22 0 35 6 39 18 10 28 35 52 55 52
15 0 19 -6 16 -27z m-2381 -10 c3 -8 -5 -13 -21 -13 -18 0 -30 -8 -40 -29 -9
-16 -25 -31 -37 -34 -18 -5 -20 -2 -14 20 3 15 0 34 -9 48 l-15 22 66 -1 c43
-1 68 -5 70 -13z m453 1 c29 -9 66 -13 81 -10 27 5 28 4 23 -23 -5 -24 1 -37
36 -75 l42 -46 -22 -18 c-29 -24 -70 -17 -70 10 0 11 -7 34 -15 51 -14 30 -19
32 -72 34 -90 4 -110 11 -117 40 -14 52 23 64 114 37z m-2533 -30 c32 -30 63
-44 101 -45 26 0 26 -1 5 -9 -29 -12 -80 5 -115 38 -25 23 -36 42 -24 42 3 0
18 -12 33 -26z m6422 -26 c1 -5 -3 -8 -9 -8 -5 0 -10 -7 -10 -15 0 -8 5 -15
10 -15 6 0 10 -9 10 -20 0 -23 -10 -25 -32 -7 -9 7 -18 33 -20 64 l-5 52 28
-22 c15 -12 28 -25 28 -29z m-2998 21 l24 -20 -30 17 c-39 24 -40 24 -28 24 6
0 21 -9 34 -21z m1252 -29 c-3 -14 -19 -41 -34 -61 -16 -21 -29 -50 -29 -65
-1 -16 -7 -40 -15 -54 -14 -24 -14 -23 -15 31 0 47 4 59 24 77 14 11 33 43 43
71 17 50 38 51 26 1z m-1037 31 c-8 -12 -71 -41 -88 -40 -7 0 10 11 37 25 56
27 58 27 51 15z m2184 -16 c18 -10 40 -36 56 -68 15 -28 35 -60 46 -71 20 -18
20 -19 -9 -37 -15 -10 -29 -14 -31 -9 -2 6 -10 10 -19 10 -8 0 -26 9 -40 20
-14 11 -32 20 -39 20 -17 0 -17 5 -3 31 7 14 7 35 1 64 -13 59 -8 64 38 40z
m-1985 -25 c-33 -11 -66 -20 -72 -20 -7 0 -34 -16 -60 -37 -60 -46 -132 -78
-145 -65 -10 10 13 28 73 56 20 9 46 26 57 36 23 21 116 47 172 48 31 1 28 -1
-25 -18z m-349 -2 c21 -9 30 -21 31 -40 2 -35 -22 -37 -60 -7 -23 17 -25 23
-14 40 6 10 12 19 13 19 1 0 15 -6 30 -12z m-1157 -8 c10 -5 24 -22 30 -38 8
-20 28 -37 62 -53 28 -13 60 -37 72 -54 32 -45 61 -75 74 -75 20 0 35 -40 29
-75 -7 -37 -29 -60 -50 -52 -8 3 -20 -1 -27 -10 -34 -40 -116 -34 -160 13 -16
17 -29 22 -48 18 -31 -7 -143 21 -177 42 -17 12 -31 13 -58 6 -52 -15 -76 -6
-76 28 0 21 11 38 41 64 46 39 79 87 79 115 0 13 8 18 28 18 55 1 124 24 129
44 6 21 25 24 52 9z m-1996 -67 c7 -35 7 -36 -17 -27 -10 4 -16 18 -16 38 0
61 21 54 33 -11z m6013 10 c1 -15 6 -38 9 -50 6 -19 3 -23 -13 -23 -11 0 -22
-8 -25 -20 -3 -12 -14 -20 -26 -20 -23 0 -61 33 -61 53 0 20 67 68 86 60 14
-5 16 -2 12 21 -4 19 -2 24 5 17 6 -6 11 -23 13 -38z m-2011 7 c0 -12 -7 -26
-15 -31 -31 -16 -80 -37 -80 -34 0 19 33 71 51 81 31 17 44 13 44 -16z m-4113
-5 c16 -14 38 -25 48 -25 13 0 17 -5 14 -15 -5 -13 -10 -12 -37 1 -37 19 -67
44 -67 56 0 13 11 9 42 -17z m1666 -10 c26 6 26 6 8 -14 -22 -24 -58 -27 -76
-6 -18 21 -3 38 22 24 11 -6 32 -8 46 -4z m3413 -15 l30 -30 -33 -20 c-40 -24
-47 -25 -76 -4 -20 14 -22 18 -9 33 8 9 17 24 20 34 9 25 35 21 68 -13z
m-5243 -25 c4 -35 26 -55 61 -55 21 0 32 -10 54 -50 22 -38 36 -52 58 -57 37
-7 36 -14 -1 -52 -33 -33 -83 -47 -131 -37 -35 7 -50 -15 -31 -45 17 -26 15
-29 -13 -29 -14 0 -25 5 -25 11 0 6 -9 22 -20 36 -11 14 -20 36 -20 50 0 20 4
22 24 17 18 -4 28 1 45 24 l21 30 -30 12 c-38 16 -48 51 -26 96 21 46 21 74
-2 74 -10 0 -24 -6 -32 -12 -12 -11 -12 -10 0 5 8 11 23 17 39 15 21 -2 27 -9
29 -33z m5932 15 c0 -5 -4 -10 -9 -10 -6 0 -13 5 -16 10 -3 6 1 10 9 10 9 0
16 -4 16 -10z m-3230 -63 c11 -24 29 -55 40 -70 17 -21 19 -30 10 -47 -16 -29
-26 -25 -80 28 -26 26 -58 54 -71 63 l-23 16 39 26 c22 15 46 27 53 27 7 0 22
-19 32 -43z m525 33 c3 -5 1 -10 -4 -10 -6 0 -11 5 -11 10 0 6 2 10 4 10 3 0
8 -4 11 -10z m2884 -37 c6 -21 11 -49 11 -63 0 -24 0 -24 -20 -5 -26 27 -39
105 -17 105 10 0 20 -14 26 -37z m-4611 4 c6 -6 12 -19 14 -27 2 -8 10 -20 18
-27 8 -6 12 -14 9 -17 -8 -8 -107 22 -114 34 -3 6 -18 10 -32 10 -21 0 -23 2
-13 14 10 13 30 18 91 24 9 1 21 -4 27 -11z m4267 -14 c-4 -10 -10 -26 -12
-35 -3 -10 -9 -18 -14 -18 -12 0 -11 27 1 51 13 24 35 26 25 2z m-4095 -25 c0
-17 -3 -18 -15 -8 -8 7 -15 19 -15 26 0 8 6 11 15 8 8 -4 15 -15 15 -26z
m1890 13 c0 -15 -32 -36 -57 -36 -22 -1 -32 22 -16 38 10 10 73 8 73 -2z m863
-8 c4 -3 -3 -13 -14 -21 -17 -12 -20 -21 -15 -56 3 -24 0 -53 -7 -70 -12 -27
-13 -22 -13 55 1 46 5 87 11 91 13 10 30 10 38 1z m-64 -81 c1 -13 -3 -20 -9
-17 -5 3 -10 23 -9 43 0 30 2 33 9 17 5 -11 9 -30 9 -43z m-229 36 c-1 -2 -9
-27 -19 -57 -17 -49 -20 -52 -30 -33 -24 44 -8 92 31 92 10 0 18 -1 18 -2z
m-3799 -28 c1 -5 2 -14 3 -19 0 -5 11 -17 23 -27 59 -50 90 -170 55 -214 l-17
-21 -21 23 c-12 13 -26 36 -31 52 -13 40 -40 57 -56 34 -7 -9 -32 -21 -57 -28
-24 -6 -53 -18 -66 -26 -28 -19 -129 -30 -137 -17 -4 6 17 13 53 17 47 6 174
52 200 73 11 10 -28 23 -60 21 -30 -3 -35 0 -38 20 -2 12 0 22 5 21 4 -1 17 1
28 6 11 4 35 14 53 21 24 10 34 21 38 44 6 28 23 42 25 20z m4119 -60 c0 -24
-7 -43 -20 -55 -23 -21 -39 -13 -20 10 8 9 14 39 14 66 1 42 3 47 14 32 6 -9
12 -33 12 -53z m1480 60 c0 -6 -8 -13 -17 -16 -10 -3 -29 -10 -42 -15 -23 -9
-23 -10 -6 -29 17 -19 17 -20 0 -20 -28 0 -55 30 -55 62 0 28 1 28 60 28 35 0
60 -4 60 -10z m95 -20 c-4 -12 -9 -19 -12 -17 -3 3 -2 15 2 27 4 12 9 19 12
17 3 -3 2 -15 -2 -27z m-4870 0 c3 -6 -1 -13 -10 -16 -19 -8 -30 0 -20 15 8
14 22 14 30 1z m1052 -86 c-3 -3 -12 -4 -19 -1 -8 3 -5 6 6 6 11 1 17 -2 13
-5z m-1357 -93 c0 -5 20 -17 44 -26 25 -10 56 -30 70 -46 41 -46 82 -62 144
-57 54 5 55 5 26 -11 -16 -9 -29 -23 -29 -31 0 -21 -61 -25 -91 -6 -23 16 -24
16 -54 -43 -39 -79 -51 -84 -43 -21 6 49 5 50 -43 95 -42 39 -46 45 -26 45 33
0 27 24 -15 60 -31 25 -35 32 -23 40 19 12 40 13 40 1z m5266 -46 c10 -8 29
-15 42 -15 15 0 26 -9 33 -26 14 -39 3 -42 -32 -8 -18 17 -42 30 -60 30 -66 3
-66 3 -45 19 11 8 25 15 31 15 6 0 20 -7 31 -15z m-56 -66 c0 -6 -4 -7 -10 -4
-5 3 -10 11 -10 16 0 6 5 7 10 4 6 -3 10 -11 10 -16z m70 -108 c0 -45 -3 -52
-37 -80 -21 -18 -45 -30 -53 -29 -25 5 -17 42 13 56 22 10 27 20 27 47 0 22 6
38 18 44 29 17 32 13 32 -38z m-232 27 c15 -15 16 -58 2 -58 -10 0 -30 41 -30
61 0 13 14 11 28 -3z m-5704 -47 c-2 -3 -12 3 -22 13 -16 17 -16 18 5 5 12 -7
20 -15 17 -18z m6301 -61 c0 -46 -26 -52 -42 -9 -15 38 -9 51 20 47 18 -2 22
-10 22 -38z m-5580 -31 c4 -5 -1 -19 -10 -29 -14 -15 -22 -17 -46 -8 -16 5
-29 14 -29 18 0 24 73 40 85 19z m5814 -42 c0 -27 -2 -29 -9 -12 -12 28 -12
57 0 50 6 -3 10 -21 9 -38z m-554 4 c3 -5 0 -21 -6 -35 -11 -24 -13 -24 -35
-8 l-23 17 22 17 c25 20 33 22 42 9z m639 3 c9 -3 16 -10 16 -14 0 -10 -38 -1
-46 11 -6 10 7 12 30 3z"/>
<path d="M2715 5007 c-25 -39 2 -76 33 -45 16 16 15 43 -2 57 -12 10 -18 8
-31 -12z"/>
<path d="M3565 4951 c-17 -10 -42 -39 -55 -64 -20 -38 -22 -49 -12 -71 15 -34
93 -72 167 -81 33 -4 68 -13 79 -21 31 -21 44 -17 69 24 44 69 43 77 -8 124
-53 48 -157 108 -189 108 -12 0 -35 -8 -51 -19z"/>
<path d="M3917 4814 c-10 -10 -9 -52 2 -58 13 -8 33 20 29 40 -3 19 -20 28
-31 18z"/>
<path d="M1476 4752 c-20 -39 -8 -55 38 -47 20 4 36 8 36 10 0 2 -13 17 -29
34 l-30 32 -15 -29z"/>
<path d="M2222 5963 c-18 -8 -40 -29 -50 -45 -11 -19 -22 -26 -32 -22 -61 26
-102 15 -179 -47 -60 -49 -63 -53 -59 -89 2 -27 0 -36 -9 -33 -31 12 -6 -69
39 -127 28 -36 88 -70 123 -70 17 0 37 -6 44 -12 10 -11 10 -8 1 13 -10 22
-20 27 -62 31 -83 8 -74 23 13 22 77 -1 82 -3 109 -33 16 -17 34 -31 39 -31 6
0 11 -9 11 -19 0 -14 -8 -21 -27 -23 -26 -4 -26 -5 12 -16 84 -25 152 -6 192
54 21 33 20 107 -2 141 -14 21 -14 23 0 23 34 0 72 30 94 75 24 48 23 67 -3
46 -8 -7 -19 -10 -25 -7 -5 3 -12 -7 -16 -23 -3 -16 -15 -37 -25 -46 -18 -16
-19 -15 -25 18 -10 52 5 89 43 101 17 6 37 17 43 23 31 31 -104 113 -184 113
-18 0 -47 -8 -65 -17z m58 -13 c0 -9 -32 -30 -46 -30 -4 0 1 9 11 20 19 21 35
26 35 10z m86 -45 c9 -21 -20 -60 -45 -62 -23 -2 -26 12 -11 51 11 29 47 36
56 11z m-281 -65 c4 -6 10 -8 15 -5 11 7 110 -15 110 -24 0 -4 -23 -9 -51 -10
-43 -1 -55 3 -75 24 -13 14 -19 25 -14 25 5 0 12 -5 15 -10z m305 -247 c0 -18
-37 -63 -52 -63 -5 0 -4 9 2 19 5 11 10 29 10 40 0 14 6 21 20 21 12 0 20 -7
20 -17z"/>
<path d="M6709 5877 c-44 -24 -79 -29 -79 -12 0 8 -8 15 -18 15 -43 0 -93 -94
-106 -203 -8 -59 2 -90 32 -106 15 -8 17 -1 20 78 2 59 8 94 20 111 l17 25 9
-54 c7 -40 6 -62 -4 -85 -32 -77 -7 -126 49 -93 20 12 51 17 101 17 69 0 74
-2 106 -34 29 -29 34 -41 34 -80 0 -45 1 -46 33 -46 17 0 47 -9 66 -21 40 -24
45 -22 26 15 -13 24 -13 30 2 52 12 19 15 46 14 107 -1 45 -1 96 0 112 9 127
-12 161 -121 193 -65 20 -173 24 -201 9z m245 -58 c14 -7 30 -25 36 -42 13
-40 13 -40 -10 -17 -23 23 -37 24 -76 10 -15 -6 -34 -8 -41 -6 -28 11 19 62
59 65 4 1 18 -4 32 -10z m-184 -84 c16 -48 5 -95 -22 -95 -18 0 -20 4 -14 31
3 17 6 47 6 65 0 44 15 43 30 -1z m229 -42 c0 -21 3 -62 8 -90 11 -61 10 -61
-74 -39 -28 8 -54 12 -56 10 -2 -2 -14 7 -26 20 -19 20 -21 28 -12 45 14 25
32 26 72 6 31 -17 72 -6 68 18 -3 14 11 67 17 67 2 0 3 -17 3 -37z"/>
<path d="M8809 5836 c-80 -14 -107 -25 -129 -51 -19 -23 -7 -27 33 -10 50 21
40 1 -24 -48 -32 -25 -49 -46 -49 -60 0 -12 -10 -40 -21 -62 -18 -33 -21 -51
-17 -115 3 -41 11 -85 18 -96 19 -31 68 -57 93 -50 18 4 17 2 -7 -17 l-28 -22
21 -19 c32 -29 26 -39 -19 -33 -44 6 -42 9 -46 -73 -1 -25 -6 -63 -12 -85 -16
-56 -8 -75 32 -75 59 0 59 -17 -4 -79 -70 -70 -82 -110 -51 -175 12 -23 21
-45 21 -48 0 -3 -14 -19 -30 -37 -17 -17 -33 -45 -36 -61 -5 -22 -13 -30 -35
-35 -36 -8 -48 -25 -17 -25 18 -1 13 -6 -21 -23 -63 -31 -69 -45 -36 -92 23
-34 26 -47 21 -84 -3 -25 -13 -52 -22 -62 -9 -10 -14 -30 -12 -45 2 -24 8 -28
33 -29 29 0 30 -2 36 -53 8 -64 12 -69 43 -52 14 7 31 10 39 7 34 -13 64 45
73 145 6 68 9 77 31 87 25 11 43 7 43 -10 0 -5 -9 -9 -19 -9 -31 0 -36 -21
-11 -40 l23 -17 -33 -67 c-42 -84 -47 -149 -12 -154 14 -2 33 7 53 27 17 17
42 34 55 37 13 4 30 14 37 24 6 9 22 20 35 24 12 4 36 19 54 34 17 14 38 27
46 28 48 8 68 72 41 129 -23 49 -53 45 -150 -18 -15 -10 -29 -13 -38 -8 -11 7
-10 15 8 45 14 22 20 43 16 56 -5 16 -2 20 19 20 13 0 38 -8 54 -17 40 -23 66
-5 57 39 -7 32 5 37 30 11 14 -14 18 -14 26 -2 6 10 9 7 9 -14 0 -24 -2 -26
-20 -15 -10 7 -22 9 -26 5 -10 -9 36 -58 48 -51 25 16 19 -53 -13 -135 -22
-54 23 -33 56 27 18 33 25 56 21 75 -3 16 0 37 9 50 7 12 15 33 17 47 2 14 12
40 21 58 12 21 19 64 22 125 l5 92 -20 -50 c-23 -57 -25 -76 -10 -91 8 -8 7
-19 -1 -37 -16 -35 -32 -35 -19 -1 6 14 10 27 10 30 0 10 -24 2 -51 -17 -16
-11 -29 -16 -29 -12 0 5 -19 30 -41 56 -46 51 -59 55 -135 35 -45 -12 -47 -12
-70 15 -35 41 -32 74 9 90 17 8 38 22 46 31 13 15 13 19 0 27 -39 24 -139 -14
-139 -54 0 -13 4 -27 9 -32 14 -15 1 -65 -18 -67 -9 0 -22 -2 -28 -2 -7 -1
-26 -23 -43 -49 -16 -26 -32 -47 -35 -47 -3 0 -5 21 -5 46 0 39 5 51 31 75 17
16 42 29 54 29 35 0 39 15 9 35 -30 19 -54 72 -53 112 1 24 2 22 10 -12 16
-66 46 -67 97 -2 25 31 29 44 25 76 -8 62 48 141 101 141 19 0 21 -6 23 -54 2
-46 -1 -60 -23 -85 -13 -16 -34 -33 -44 -36 -51 -16 4 -55 77 -55 27 0 37 6
51 30 12 22 24 30 45 30 33 0 75 20 101 49 14 16 17 29 12 60 -4 27 -2 42 8
50 10 9 13 37 12 106 0 52 2 95 7 95 17 0 68 56 87 95 25 52 25 68 -1 123 -20
41 -21 46 -6 71 9 16 17 57 19 101 3 73 3 74 -22 75 -22 0 -25 4 -23 32 2 23
-3 36 -19 47 -29 20 -110 21 -149 1 -31 -17 -31 -35 1 -35 27 0 50 -38 50 -82
0 -47 15 -56 45 -28 22 20 25 21 39 7 9 -9 16 -30 16 -47 0 -26 -3 -31 -16
-26 -9 4 -28 -1 -41 -10 -14 -8 -31 -13 -38 -10 -8 3 -17 1 -20 -5 -4 -5 -16
2 -26 16 -20 24 -20 26 -3 54 17 28 17 31 1 49 -9 10 -17 26 -17 35 0 8 -12
29 -26 46 -21 25 -22 30 -7 25 16 -6 16 -4 -3 15 -27 29 -78 34 -175 17z m79
-22 c2 -1 -10 -10 -27 -18 -37 -20 -101 -101 -101 -129 0 -13 -3 -18 -10 -11
-17 17 7 84 47 128 30 35 43 42 63 38 14 -3 27 -6 28 -8z m100 -183 c-1 -21
-10 -34 -39 -52 -42 -26 -48 -43 -23 -70 15 -16 14 -19 -15 -33 -16 -9 -39
-16 -51 -16 -13 0 -20 -7 -20 -19 0 -24 -20 -30 -84 -27 -35 2 -51 8 -58 21
-9 15 -8 17 6 12 9 -4 29 -4 45 -1 24 5 29 11 28 32 -1 18 4 27 16 30 12 2 17
-3 17 -17 0 -14 6 -21 18 -21 24 0 43 40 31 63 -11 19 15 67 35 67 6 0 27 13
46 30 44 37 49 37 48 1z m-249 -33 c-8 -14 -14 -18 -17 -10 -4 13 17 46 25 38
3 -2 -1 -15 -8 -28z m-102 -55 c-3 -10 -5 -4 -5 12 0 17 2 24 5 18 2 -7 2 -21
0 -30z m503 -47 c0 -7 -16 -27 -35 -46 -34 -33 -38 -34 -115 -35 -58 0 -74 3
-58 9 92 37 139 61 159 82 17 18 25 21 36 13 7 -6 13 -17 13 -23z m-455 -89
c5 -17 3 -27 -4 -27 -14 0 -41 53 -41 81 0 21 0 21 19 -3 11 -13 23 -37 26
-51z m179 -33 c26 -10 8 -24 -31 -24 -30 0 -34 2 -23 15 13 16 29 19 54 9z
m251 -34 c22 -8 24 -13 15 -30 -15 -27 -75 -28 -90 -1 -13 26 -13 29 8 34 29
8 40 7 67 -3z m-282 -74 c4 -6 5 -32 1 -57 -4 -34 -2 -49 10 -58 22 -18 20
-43 -1 -39 -10 2 -19 14 -21 28 -2 14 -22 44 -44 66 l-40 41 27 21 c26 21 52
20 68 -2z m237 -1 c9 -11 11 -35 5 -88 -4 -39 -7 -92 -6 -117 2 -84 -32 -90
-65 -12 -18 43 -18 52 1 52 18 0 18 3 1 60 -28 96 -28 100 -4 110 34 13 54 12
68 -5z m-129 -52 c-12 -20 -14 -14 -5 12 4 9 9 14 11 11 3 -2 0 -13 -6 -23z
m-218 -109 c15 -17 27 -41 27 -53 0 -33 -17 -25 -24 11 -3 18 -17 44 -30 58
-13 14 -26 34 -29 45 -5 16 -3 15 11 -5 9 -13 29 -39 45 -56z m207 26 c0 -19
-5 -30 -14 -30 -22 0 -28 17 -14 40 18 28 28 25 28 -10z m-185 -140 c-3 -5
-12 -10 -18 -10 -7 0 -6 4 3 10 19 12 23 12 15 0z m60 -391 c51 -8 78 -17 84
-28 8 -14 -2 -15 -107 -9 -65 3 -128 4 -142 1 l-25 -4 28 25 c32 29 52 31 162
15z m-220 -257 c-33 -17 -39 -12 -24 22 12 25 13 25 31 9 18 -16 18 -17 -7
-31z m262 -82 c30 0 34 -2 23 -15 -14 -17 -53 -20 -81 -4 -22 11 -15 34 8 25
8 -3 31 -6 50 -6z"/>
<path d="M3320 5825 c0 -17 35 -55 50 -55 6 0 1 9 -10 20 -11 11 -20 27 -20
35 0 8 -4 15 -10 15 -5 0 -10 -7 -10 -15z"/>
<path d="M5874 5769 c-35 -10 -59 -33 -50 -48 4 -6 25 0 53 14 25 14 52 25 59
25 8 0 14 5 14 10 0 12 -33 12 -76 -1z"/>
<path d="M2574 5595 c11 -8 23 -15 28 -15 4 0 8 -11 8 -24 0 -14 4 -28 10 -31
6 -4 7 6 4 27 -7 35 -28 58 -53 58 -13 -1 -12 -4 3 -15z"/>
<path d="M5790 5587 c0 -50 69 -104 118 -92 l25 6 -30 19 c-17 10 -44 35 -59
54 -33 41 -54 46 -54 13z"/>
<path d="M5781 5378 c-30 -30 -48 -83 -38 -110 3 -8 8 -3 15 12 5 14 26 47 46
73 20 26 36 49 36 52 0 15 -32 1 -59 -27z"/>
<path d="M6586 5394 c-45 -16 -76 -41 -76 -60 0 -18 98 33 111 58 5 10 8 18 7
17 -2 0 -21 -7 -42 -15z"/>
<path d="M3075 5211 c-4 -17 -11 -33 -16 -36 -15 -10 -10 -42 7 -49 21 -8 20
-8 38 10 22 21 20 67 -3 88 -18 17 -19 16 -26 -13z"/>
<path d="M3190 5150 c0 -5 9 -10 20 -10 11 0 20 5 20 10 0 6 -9 10 -20 10 -11
0 -20 -4 -20 -10z"/>
<path d="M5506 5116 c-21 -33 -20 -36 9 -36 23 0 25 3 19 28 -9 36 -9 36 -28
8z"/>
<path d="M3170 5120 c0 -5 5 -10 10 -10 6 0 10 5 10 10 0 6 -4 10 -10 10 -5 0
-10 -4 -10 -10z"/>
<path d="M9073 4885 c-23 -26 -40 -35 -62 -35 -16 0 -41 -5 -55 -11 l-25 -12
29 -34 c20 -23 30 -44 30 -67 0 -20 8 -40 20 -51 11 -10 20 -13 20 -7 0 6 19
12 42 14 36 3 45 8 61 36 18 30 18 38 7 73 -12 34 -11 44 3 75 10 19 15 40 12
45 -13 20 -52 8 -82 -26z"/>
<path d="M7856 4851 c-20 -22 -19 -23 32 -34 20 -5 23 -2 20 21 -4 33 -28 39
-52 13z"/>
<path d="M2982 4691 c16 -25 31 -27 26 -4 -2 10 -11 19 -21 21 -16 3 -17 1 -5
-17z"/>
<path d="M5277 4694 c-3 -3 -3 -12 0 -20 3 -8 -1 -14 -11 -14 -9 0 -16 -5 -16
-11 0 -7 12 -8 33 -4 37 8 77 31 77 45 0 11 -73 14 -83 4z"/>
<path d="M3024 4655 c-10 -8 -14 -15 -8 -15 6 0 17 7 24 15 16 19 9 19 -16 0z"/>
<path d="M3345 4650 c3 -5 8 -10 11 -10 2 0 4 5 4 10 0 6 -5 10 -11 10 -5 0
-7 -4 -4 -10z"/>
<path d="M7458 4653 c7 -3 16 -2 19 1 4 3 -2 6 -13 5 -11 0 -14 -3 -6 -6z"/>
<path d="M2788 4593 c-21 -15 -37 -33 -38 -39 0 -20 43 -66 76 -80 30 -12 31
-16 24 -46 -4 -18 -13 -45 -19 -60 -9 -24 -8 -28 8 -28 10 0 33 10 52 23 28
19 35 31 41 69 8 59 15 70 41 66 17 -2 24 5 35 36 16 49 9 56 -23 26 l-25 -23
-32 37 c-46 51 -90 58 -140 19z"/>
<path d="M8061 4553 c29 -50 69 -93 86 -93 7 0 13 11 13 25 0 18 -11 31 -38
49 -20 13 -43 31 -51 40 -26 31 -33 16 -10 -21z"/>
<path d="M8248 4519 c-10 -5 -18 -19 -18 -30 0 -18 1 -19 25 -3 14 9 25 12 25
7 0 -13 102 -25 113 -14 5 5 -7 18 -26 30 -36 22 -91 27 -119 10z"/>
<path d="M8327 4443 c-15 -15 -6 -33 17 -33 33 0 42 16 17 29 -23 13 -26 13
-34 4z"/>
<path d="M2082 4338 c6 -16 36 -34 44 -25 9 9 -15 37 -33 37 -8 0 -13 -5 -11
-12z"/>
<path d="M7544 4056 c-10 -8 -15 -18 -11 -22 4 -4 15 0 24 9 22 21 12 31 -13
13z"/>
</g>
</svg>
